<?xml version="1.0" encoding="UTF-8"?>
<svg xmlns="http://www.w3.org/2000/svg" viewBox="0 0 32 32">
  <path d="M18.432 10.204h3.043v-3.113h-3.043zM14.193 10.204h3.043v-3.113h-3.043zM9.954 10.204h3.043v-3.113h-3.043zM5.715 10.204h3.043v-3.113h-3.043zM1.477 14.442h3.043v-3.113h-3.043zM5.715 14.442h3.043v-3.113h-3.043zM9.954 14.442h3.043v-3.113h-3.043zM14.193 14.442h3.043v-3.113h-3.043zM18.432 14.442h3.043v-3.113h-3.043z" fill="#099cec"/>
  <path d="M29.478 10.665c-.671-.571-2.056-.761-3.17-.486-.143-1.023-.904-1.913-2.236-2.722l-.761-.38-.507.697c-.634.888-.95 2.122-.857 3.298.038.41.19 1.143.634 1.79-.444.253-1.32.592-2.476.57h-22.924c-.444 0-.8.38-.8.824 0 1.485.127 3.013.698 4.346.571 1.256 1.422 2.122 2.476 2.532 1.206.444 3.997.824 6.8-.507l.254-.127.042-.042c1.485-.824 2.9-2.236 3.933-3.806h.042c.95.042 1.943.042 2.9-.127 2.097-.38 3.997-1.333 5.482-2.826l.254-.254c.317.042.634.042.95.042 1.752 0 3.043-.761 3.68-2.27.127-.254.254-.57.317-.888l.127-.57-.507-.38c-.38-.296-.95-.507-1.6-.57zm-18.927 7.455c.127-.38.254-.761.38-1.143h.042c.127.38.254.761.38 1.143-.254 0-.507 0-.802 0z" fill="#099cec"/>
</svg>
