<?xml version="1.0" encoding="UTF-8"?>
<svg xmlns="http://www.w3.org/2000/svg" viewBox="0 0 512 512">
  <path fill="#E44D26" d="M107.6 470.9l-33-370.3h362.8l-33 370.2L255.8 512z"/>
  <path fill="#F16529" d="M256 480.5l120.2-33.3 28.3-316.3H256z"/>
  <path fill="#EBEBEB" d="M256 268.2h-60.1l-4.1-46.5H256v-45.4H142.1l1.1 12.2 11.2 125.1H256zM256 386.2h-.2l-50.6-13.6-3.2-36.3h-45.6l6.4 71.3 93 25.9.2-.1z"/>
  <path fill="#fff" d="M255.8 268.2v45.4h56l-5.3 59-50.7 13.6v47.2l93.1-25.8.7-7.6 10.7-119.6 1.1-12.2h-12.2zM255.8 176.3v45.4H365.5l.9-10.2 2.1-23 1.1-12.2z"/>
</svg>
