<?xml version="1.0" encoding="UTF-8"?>
<svg xmlns="http://www.w3.org/2000/svg" viewBox="0 0 32 32">
  <path d="M15.9.087l.854 1.604c.192.296.4.558.645.802.715.715 1.394 1.464 2.004 2.266 1.447 1.9 2.423 4.01 3.12 6.292.418 1.394.645 2.824.662 4.27.07 4.323-1.412 8.035-4.4 11.12-.488.488-1.01.94-1.57 1.342-.296 0-.436-.227-.558-.436-.227-.383-.366-.802-.436-1.222-.105-.558-.122-1.133-.105-1.7.017-.296.052-.61.105-.906.17-.802.296-1.57.296-2.38 0-.21-.017-.436-.07-.654-.166-.68-.68-1.18-1.343-1.27-.366-.052-.61-.105-.958-.052-.435.07-.872.21-1.203.488-.348.296-.523.698-.523 1.182v.14c0 .61.105 1.2.21 1.796.052.34.087.662.087.994 0 .994-.314 1.953-.732 2.84-.35.731-.767 1.395-1.133 2.092-.14.244-.244.505-.21.767v.07c.017.384.105.732.296 1.063.21.349.47.645.767.905.834.715 1.796 1.2 2.824 1.517.437.122.89.226 1.343.314.296.052.61.07.906.088 1.08.017 2.16.052 3.24.07.436.017.872.035 1.308.07.14.017.297.052.436.105.807.262 1.516.697 1.9 1.448.053.105.088.227.088.35v.488c.017.436-.105.872-.314 1.222-.488.767-1.203 1.343-1.97 1.83-.8.488-1.62.872-2.527 1.133-.662.21-1.343.367-2.022.47h-.105c-.436.052-.872.087-1.308.087-.14 0-.278 0-.418-.017-.488-.052-.994-.105-1.482-.21-.296-.052-.61-.122-.906-.21-.806-.227-1.596-.558-2.32-1.01-.438-.28-.858-.592-1.203-.976-.244-.28-.453-.575-.627-.906-.244-.47-.383-.976-.383-1.516 0-.105 0-.227.017-.332.017-.435.157-.85.383-1.203.297-.453.68-.85 1.133-1.133.558-.348 1.133-.627 1.744-.84.488-.174 1.01-.314 1.516-.418.244-.052.488-.087.732-.122.383-.087.732-.21 1.063-.418.244-.174.47-.418.47-.767v-.035c0-.122-.035-.227-.105-.314-.157-.21-.384-.348-.61-.47-.315-.174-.645-.314-.98-.47-.42-.174-.82-.383-1.203-.61-.348-.21-.662-.47-.976-.767-.105-.122-.192-.244-.297-.366-.244-.348-.47-.697-.662-1.08-.244-.558-.453-1.133-.627-1.726-.087-.28-.122-.575-.157-.87-.052-.47-.087-.94-.087-1.412v-.313c.017-.384.07-.767.122-1.133.07-.47.14-.94.244-1.4.122-.558.279-1.1.47-1.64.244-.68.54-1.323.888-1.953.244-.418.505-.836.784-1.222.157-.21.31-.418.47-.627.244-.28.505-.558.784-.802.192-.174.4-.348.592-.505.28-.21.575-.418.87-.592.244-.14.505-.244.767-.35.14-.053.297-.105.436-.157.35-.122.68-.244 1.048-.314.244-.052.505-.087.767-.122.244-.035.488-.052.732-.07.244 0 .488-.017.732-.017.244 0 .47 0 .7.017.244.018.488.053.732.088.244.035.488.07.732.122.244.053.47.122.697.21.21.07.418.174.627.28.174.087.366.174.523.297.14.087.297.174.418.296.174.14.331.296.47.47.174.174.314.383.47.575.105.157.21.314.279.488.105.174.174.383.244.575.052.21.122.4.157.627.052.21.07.418.105.627.017.21.035.418.035.627 0 .28-.018.558-.07.837-.035.244-.087.47-.157.697-.087.244-.192.47-.314.688-.14.244-.296.47-.47.68-.244.297-.505.558-.784.784-.174.14-.366.244-.558.348-.174.087-.366.122-.558.174-.157.035-.297.07-.453.087-.244.035-.488.052-.732.052-.14 0-.278-.017-.418-.035-.244-.035-.488-.087-.732-.157-.174-.052-.348-.122-.505-.21-.244-.122-.47-.261-.688-.418-.244-.192-.47-.401-.662-.645-.244-.28-.453-.592-.627-.94-.07-.14-.122-.279-.157-.418-.087-.28-.122-.575-.122-.871 0-.21.017-.418.07-.627.052-.244.122-.47.21-.697.122-.244.261-.47.418-.688.192-.244.4-.47.627-.662.244-.21.505-.4.784-.54.244-.122.505-.21.767-.296.28-.087.558-.157.837-.21.244-.052.488-.087.732-.105.21-.017.418-.035.627-.035.157 0 .314 0 .47.018.244.017.488.052.732.105.21.052.418.122.61.21.21.087.401.21.575.348.157.14.28.296.366.488.07.157.105.331.105.505 0 .244-.087.47-.244.662-.14.174-.331.297-.54.383-.244.087-.505.14-.767.122-.21-.017-.418-.07-.627-.14-.244-.087-.47-.21-.688-.348-.244-.157-.47-.331-.688-.523-.21-.174-.418-.366-.627-.54-.21-.174-.418-.331-.645-.47-.244-.14-.505-.244-.767-.331-.28-.087-.558-.157-.85-.192-.297-.035-.592-.052-.889-.052-.21 0-.418.017-.627.052-.244.035-.47.105-.697.192-.21.087-.418.21-.592.366-.157.14-.28.331-.331.54-.035.14-.052.28-.052.418 0 .07 0 .157.017.227.035.174.105.331.21.47.122.174.28.314.47.418.21.122.436.21.662.28.244.07.488.122.732.157.488.07.976.105 1.464.157.244.017.488.052.732.087.244.035.488.07.732.122.244.053.488.105.732.175.21.07.418.157.627.244.21.087.418.192.61.314.21.122.4.261.575.418.174.157.331.331.47.523.14.21.261.418.366.645.105.227.174.47.21.714.035.244.052.488.052.732 0 .314-.052.627-.157.906-.122.314-.296.593-.505.85-.244.279-.505.523-.81.731-.314.21-.645.384-1.01.505-.366.122-.749.192-1.133.21-.174 0-.349-.018-.523-.035-.244-.035-.488-.087-.732-.157-.21-.07-.418-.157-.627-.261-.174-.105-.348-.21-.505-.332-.174-.122-.331-.261-.47-.418-.174-.174-.314-.366-.47-.558-.105-.174-.192-.348-.261-.54-.087-.21-.157-.418-.21-.645-.035-.21-.07-.418-.087-.627-.018-.21-.018-.418-.018-.627v-.035c0-.366.07-.732.21-1.063.14-.366.331-.697.575-.994.261-.296.557-.54.906-.732.348-.192.714-.331 1.097-.418.366-.087.749-.122 1.133-.122.418 0 .836.052 1.236.174.418.122.801.296 1.148.523.383.244.732.54 1.028.888.314.348.575.731.784 1.15.21.418.349.87.418 1.323.07.47.087.94.052 1.412-.035.558-.14 1.097-.314 1.62-.21.558-.47 1.08-.819 1.553-.366.505-.784.94-1.255 1.308-.505.383-1.063.68-1.657.906-.575.21-1.168.348-1.778.418-.14.017-.296.017-.436.017-.366 0-.732-.017-1.097-.07-.366-.052-.732-.14-1.08-.261-.348-.122-.679-.28-.994-.47-.296-.192-.575-.418-.819-.68-.21-.227-.4-.47-.54-.749-.157-.28-.244-.592-.244-.906 0-.157.017-.314.052-.47.07-.244.175-.47.314-.662.14-.21.314-.383.505-.54.21-.157.436-.28.662-.366.244-.087.488-.14.749-.157.21-.017.418 0 .627.035.21.035.4.105.575.21.174.105.331.244.47.4.122.157.21.331.261.523.052.174.07.348.07.523v.052c-.017.21-.087.4-.21.575-.122.174-.261.331-.418.47-.174.14-.366.261-.575.348-.21.087-.418.157-.645.192-.21.035-.418.052-.627.052-.157 0-.314-.017-.47-.052-.157-.035-.314-.087-.47-.157-.157-.07-.296-.157-.418-.261-.122-.105-.227-.227-.296-.366-.07-.122-.122-.261-.14-.4-.017-.07-.017-.14-.017-.21 0-.157.052-.296.157-.418.105-.122.21-.227.348-.296.14-.07.28-.122.436-.157.122-.035.261-.052.383-.052h.035c.105 0 .21.017.314.052.105.035.192.087.261.157.07.07.122.157.157.244.035.087.052.174.052.261v.018c0 .052-.017.105-.035.157-.035.052-.07.105-.105.14-.07.07-.14.122-.21.157-.087.035-.157.07-.244.07-.07 0-.14-.017-.192-.052-.052-.035-.105-.07-.14-.122-.035-.052-.052-.105-.07-.157v-.07c0-.017 0-.035.018-.052 0-.017.017-.035.017-.052 0-.017 0-.035-.017-.052 0-.017-.018-.035-.035-.035h-.018c-.052 0-.087.018-.122.035-.035.017-.07.052-.087.087-.018.035-.035.07-.035.105v.052c.018.07.053.122.105.157.07.035.14.07.21.087.07.018.14.018.21.018.105 0 .21-.018.296-.07.087-.052.157-.105.21-.175.052-.07.087-.157.087-.244v-.07c-.017-.122-.07-.227-.157-.314-.087-.087-.192-.14-.314-.157-.122-.017-.244-.017-.349.018-.122.035-.227.087-.314.174-.087.087-.157.192-.174.314-.017.122-.017.244.018.349.035.122.087.227.174.314.087.087.192.157.314.174.122.017.244.017.349-.018.087-.035.174-.07.244-.122.07-.052.14-.122.192-.192.052-.07.087-.157.105-.244.017-.087.017-.174.017-.261 0-.14-.035-.279-.105-.4-.07-.122-.174-.227-.296-.296-.122-.07-.261-.105-.4-.105-.157 0-.296.035-.418.105-.14.07-.244.174-.314.296-.07.122-.105.261-.105.4 0 .14.035.279.105.4.07.122.174.227.296.296.122.07.261.105.4.105.157 0 .296-.035.418-.105.14-.07.244-.174.314-.296.07-.122.105-.261.105-.4v-.035c0-.052-.017-.105-.035-.157.017.052.017.105.017.157v.035c0 .14-.035.279-.105.4-.07.122-.174.227-.296.296-.122.07-.261.105-.4.105-.157 0-.296-.035-.418-.105-.14-.07-.244-.174-.314-.296-.07-.122-.105-.261-.105-.4 0-.14.035-.279.105-.4.07-.122.174-.227.296-.296.122-.07.261-.105.4-.105.157 0 .296.035.418.105.14.07.244.174.314.296.07.122.105.261.105.4 0 .087-.017.174-.035.261-.035.087-.07.174-.122.244-.052.07-.122.14-.192.192-.07.052-.157.087-.244.122-.105.035-.21.035-.314.035-.105 0-.21-.017-.314-.07-.105-.052-.192-.122-.261-.21-.07-.087-.105-.192-.122-.314-.017-.122 0-.244.052-.349.052-.105.122-.192.21-.261.087-.07.192-.105.314-.122.105-.017.227 0 .331.035.105.035.192.105.261.192.07.087.105.192.105.314 0 .087-.018.174-.07.244-.052.07-.122.122-.21.157-.087.035-.174.052-.279.035-.087-.018-.174-.053-.244-.105-.07-.052-.122-.122-.14-.21-.017-.087-.017-.174.018-.261.035-.087.087-.157.157-.21.07-.052.157-.07.244-.07.087 0 .174.018.244.07.07.052.122.122.157.21.035.087.035.174.018.261-.018.087-.07.157-.14.21-.07.052-.157.087-.244.105-.105.017-.192.017-.279-.018-.087-.035-.157-.087-.21-.157-.052-.07-.07-.157-.07-.244 0-.122.035-.227.105-.314.07-.087.157-.157.261-.192.105-.035.227-.052.331-.035.122.017.227.052.314.122.087.07.157.157.21.261.052.105.07.227.052.349-.017.122-.07.227-.122.314-.07.087-.157.157-.261.21-.105.052-.21.07-.314.07-.105 0-.21-.018-.314-.035-.087-.035-.174-.07-.244-.122-.07-.052-.14-.122-.192-.192-.052-.07-.087-.157-.122-.244-.017-.087-.035-.174-.035-.261 0-.14.035-.279.105-.4.07-.122.174-.227.296-.296.122-.07.261-.105.4-.105.157 0 .296.035.418.105.14.07.244.174.314.296.07.122.105.261.105.4 0 .14-.035.279-.105.4-.07.122-.174.227-.296.296-.122.07-.261.105-.4.105-.157 0-.296-.035-.418-.105-.14-.07-.244-.174-.314-.296-.07-.122-.105-.261-.105-.4 0-.14.035-.279.105-.4.07-.122.174-.227.296-.296.122-.07.261-.105.4-.105.157 0 .296.035.418.105.14.07.244.174.314.296.07.122.105.261.105.4 0 .087-.017.174-.017.261-.018.087-.053.174-.105.244-.052.07-.122.14-.192.192-.07.052-.157.087-.244.122-.105.035-.21.035-.349.018-.122-.017-.227-.087-.314-.174-.087-.087-.14-.192-.174-.314-.035-.105-.035-.227-.018-.349.017-.122.087-.227.174-.314.087-.087.192-.14.314-.174.105-.035.227-.035.349-.018.122.017.227.07.314.157.087.087.14.192.157.314v.07c0 .087-.035.174-.087.244-.052.07-.122.122-.21.175-.087.052-.192.07-.296.07-.07 0-.14 0-.21-.018-.07-.017-.14-.052-.21-.087-.052-.035-.087-.087-.105-.157v-.052c0-.035.017-.07.035-.105.017-.035.052-.07.087-.087.035-.017.07-.035.122-.035h.018c.017 0 .035.018.035.035.017.017.017.035.017.052 0 .017-.017.035-.017.052-.018.017-.018.035-.018.052v.07c.018.052.035.105.07.157.035.052.087.087.14.122.052.035.122.052.192.052.087 0 .157-.035.244-.07.07-.035.14-.087.21-.157.035-.035.07-.087.105-.14.018-.052.035-.105.035-.157v-.018c0-.087-.017-.174-.052-.261-.035-.087-.087-.174-.157-.244-.07-.07-.157-.122-.261-.157-.105-.035-.21-.052-.314-.052h-.035c-.122 0-.261.017-.383.052-.157.035-.297.087-.436.157-.14.07-.244.174-.348.296-.105.122-.157.261-.157.418 0 .07 0 .14.017.21.018.14.07.279.14.4.07.14.174.261.296.366.122.105.261.192.418.261.157.07.314.122.47.157.157.035.314.052.47.052.21 0 .418-.017.627-.052.227-.035.436-.105.645-.192.21-.087.4-.21.575-.348.157-.14.296-.296.418-.47.122-.174.192-.366.21-.575v-.052c0-.174-.017-.348-.07-.523-.052-.192-.14-.366-.261-.523-.14-.157-.296-.296-.47-.4-.174-.105-.366-.174-.575-.21-.21-.035-.418-.052-.627-.035-.261.017-.505.07-.749.157-.227.087-.453.21-.662.366-.192.157-.366.331-.505.54-.14.192-.244.418-.314.662-.035.157-.052.314-.052.47 0 .314.087.627.244.906.14.28.331.523.54.749.244.261.523.488.819.68.314.192.645.348.994.47.348.122.714.21 1.08.261.366.052.732.07 1.097.07.14 0 .296 0 .436-.017.61-.07 1.203-.21 1.778-.418.592-.227 1.15-.523 1.657-.906.47-.366.889-.802 1.255-1.308.349-.47.61-.994.819-1.553.174-.523.28-1.063.314-1.62.035-.47.017-.94-.052-1.412-.07-.453-.21-.906-.418-1.323-.21-.418-.47-.802-.784-1.15-.296-.348-.645-.645-1.028-.888-.348-.227-.732-.4-1.148-.523-.4-.122-.818-.174-1.236-.174-.383 0-.767.035-1.133.122-.383.087-.749.227-1.097.418-.348.192-.645.436-.906.732-.244.296-.436.627-.575.994-.14.331-.21.697-.21 1.063v.035c0 .21 0 .418.018.627.017.21.052.418.087.627.052.227.122.436.21.645.07.192.157.366.261.54.157.192.296.383.47.558.14.157.296.296.47.418.157.122.331.227.505.332.21.105.418.192.627.261.244.07.488.122.732.157.174.017.349.035.523.035.383-.018.767-.087 1.133-.21.366-.122.697-.296 1.01-.505.314-.21.575-.453.81-.731.21-.261.383-.54.505-.85.105-.28.157-.592.157-.906 0-.244-.017-.488-.052-.732-.035-.244-.105-.488-.21-.714-.105-.227-.227-.436-.366-.645-.14-.192-.296-.366-.47-.523-.174-.157-.366-.296-.575-.418-.192-.122-.4-.227-.61-.314-.21-.087-.418-.174-.627-.244-.244-.07-.488-.122-.732-.175-.244-.052-.488-.087-.732-.122-.244-.035-.488-.07-.732-.087-.488-.052-.976-.087-1.464-.157-.244-.035-.488-.087-.732-.157-.227-.07-.453-.157-.662-.28-.192-.105-.348-.244-.47-.418-.105-.14-.174-.296-.21-.47-.017-.07-.017-.157-.017-.227 0-.14.017-.28.052-.418.052-.21.174-.4.331-.54.174-.157.383-.28.592-.366.227-.087.453-.157.697-.192.21-.035.418-.052.627-.052.331 0 .627.017.889.052.292.035.57.105.85.192.261.087.523.192.767.331.227.14.436.296.645.47.21.174.418.366.627.54.21.192.436.366.688.523.21.14.436.261.688.348.21.07.418.122.627.14.261.017.523-.035.767-.122.21-.087.4-.21.54-.383.157-.192.244-.418.244-.662 0-.174-.035-.348-.105-.505-.087-.192-.21-.348-.366-.488-.174-.14-.366-.261-.575-.348-.192-.087-.4-.157-.61-.21-.244-.052-.488-.087-.732-.105-.157-.017-.314-.018-.47-.018-.21 0-.418.018-.627.035-.244.018-.488.052-.732.105-.28.052-.558.122-.837.21-.261.087-.523.174-.767.296-.28.14-.54.331-.784.54-.227.192-.436.418-.627.662-.157.21-.296.444-.418.688-.087.227-.157.453-.21.697-.052.21-.07.418-.07.627 0 .296.035.592.122.871.035.14.087.28.157.418.174.348.383.662.627.94.192.244.418.453.662.645.21.157.444.296.688.418.157.087.331.157.505.21.244.07.488.122.732.157.14.018.28.035.418.035.244 0 .488-.017.732-.052.157-.017.297-.052.453-.087.192-.052.383-.087.558-.174.192-.105.383-.21.558-.348.28-.227.54-.488.784-.784.174-.21.331-.436.47-.68.122-.21.227-.444.314-.688.07-.227.122-.453.157-.697.052-.28.07-.558.07-.837 0-.21-.018-.418-.035-.627-.035-.21-.052-.418-.105-.627-.035-.227-.105-.418-.157-.627-.07-.192-.14-.4-.244-.575-.07-.174-.174-.331-.279-.488-.157-.192-.296-.4-.47-.575-.14-.174-.296-.331-.47-.47-.122-.122-.28-.21-.418-.296-.157-.122-.349-.21-.523-.297-.21-.105-.418-.21-.627-.28-.227-.087-.453-.157-.697-.21-.244-.052-.488-.087-.732-.122-.244-.035-.488-.07-.732-.088-.227-.017-.453-.017-.7-.017-.244 0-.488.017-.732.017-.244.018-.488.035-.732.07-.261.035-.523.07-.767.122-.366.07-.697.192-1.048.314-.14.052-.296.105-.436.157-.261.105-.523.21-.767.35-.296.174-.592.383-.87.592-.192.157-.4.331-.592.505-.28.244-.54.523-.784.802-.157.21-.314.418-.47.627-.28.383-.54.802-.784 1.222-.349.63-.645 1.273-.888 1.953-.192.54-.348 1.08-.47 1.64-.105.46-.174.93-.244 1.4-.052.366-.105.749-.122 1.133v.313c0 .47.035.94.087 1.412.035.296.07.592.157.87.174.592.383 1.168.627 1.726.192.383.418.732.662 1.08.105.122.192.244.297.366.314.296.627.558.976.767.383.227.784.436 1.203.61.331.157.662.296.98.47.227.122.453.261.61.47.07.087.105.192.105.314v.035c0 .348-.227.592-.47.767-.331.21-.68.331-1.063.418-.244.035-.488.07-.732.122-.505.105-1.028.244-1.516.418-.61.21-1.185.488-1.744.84-.453.28-.836.68-1.133 1.133-.226.353-.366.768-.383 1.203-.017.105-.017.227-.017.332 0 .54.14 1.045.383 1.516.174.331.383.627.627.906.348.383.767.697 1.203.976.732.453 1.516.784 2.32 1.01.296.087.61.157.906.21.488.105.994.157 1.482.21.14.017.28.017.418.017.436 0 .872-.035 1.308-.087h.105c.68-.105 1.36-.261 2.022-.47.906-.261 1.726-.645 2.527-1.133.767-.488 1.482-1.063 1.97-1.83.21-.35.331-.786.314-1.222v-.488c0-.122-.035-.244-.088-.35-.383-.75-1.093-1.185-1.9-1.448-.14-.052-.296-.087-.436-.105-.436-.035-.872-.052-1.308-.07-1.08-.017-2.16-.052-3.24-.07-.296-.017-.61-.035-.906-.088-.453-.087-.906-.192-1.343-.314-1.028-.314-1.99-.802-2.824-1.517-.296-.261-.558-.558-.767-.905-.192-.331-.28-.68-.296-1.063v-.07c-.035-.261.07-.523.21-.767.366-.697.784-1.36 1.133-2.092.418-.888.732-1.847.732-2.84 0-.331-.035-.654-.087-.994-.105-.596-.21-1.185-.21-1.796v-.14c0-.484.174-.886.523-1.182.331-.28.767-.418 1.203-.488.348-.052.592 0 .958.052.662.087 1.178.592 1.343 1.27.052.21.07.444.07.654 0 .81-.122 1.578-.296 2.38-.052.296-.087.61-.105.906-.017.566 0 1.14.105 1.7.07.418.21.836.436 1.222.122.21.261.436.558.436.558-.4 1.08-.854 1.57-1.342 2.988-3.085 4.47-6.797 4.4-11.12-.017-1.447-.244-2.877-.662-4.27-.697-2.282-1.673-4.392-3.12-6.292-.61-.802-1.29-1.55-2.004-2.266-.244-.244-.453-.506-.645-.802L15.9.087z" fill="#599636"/>
</svg>
