<?xml version="1.0" encoding="UTF-8"?>
<svg xmlns="http://www.w3.org/2000/svg" viewBox="0 0 32 32">
  <path d="M15.623 0 13.16 1.415l-2.134 1.05-2.078 1.04-2.067 1.015-2.063 1.015-1.96.98v6.97l.672.336 1.288.644 2.066 1.035 2.067 1.03 2.08 1.035 2.133 1.07 2.462 1.227 2.464-1.227 2.133-1.07 2.08-1.035 2.068-1.03 2.066-1.035 1.287-.644.673-.336v-6.97l-1.96-.98-2.063-1.015-2.067-1.015-2.078-1.04-2.134-1.05L15.623 0z" fill="#a41e11"/>
  <path d="m15.623 11.707-2.463 1.227-2.133 1.05-2.08 1.04-2.068 1.015-2.066 1.015-1.288.644-.672.336v6.97l1.96.98 2.063 1.015 2.067 1.015 2.078 1.04 2.134 1.05 2.463 1.415 2.463-1.415 2.134-1.05 2.078-1.04 2.067-1.015 2.063-1.015 1.96-.98v-6.97l-.672-.336-1.288-.644-2.066-1.015-2.068-1.015-2.08-1.04-2.133-1.05-2.463-1.227z" fill="#d82c20"/>
  <path d="m24.138 8.08-8.515 3.525-8.514-3.526 8.514-3.59 8.515 3.59z" fill="#a41e11"/>
  <path d="m24.138 19.787-8.515 3.525-8.514-3.525 8.514-3.59 8.515 3.59z" fill="#d82c20"/>
  <path d="M7.11 14.933 15.623 18.458 24.138 14.933 15.623 11.408 7.11 14.933z" fill="#a41e11"/>
  <path d="M15.623 11.408 7.11 14.933 15.623 18.458 24.138 14.933 15.623 11.408z" fill="#d82c20"/>
  <path d="M11.306 13.66 7.11 14.933 15.623 18.458 24.138 14.933 19.94 13.66 15.623 15.59 11.306 13.66z" fill="#7a0c00"/>
  <path d="M15.623 0 13.16 1.415l-2.134 1.05-2.078 1.04-2.067 1.015-2.063 1.015-1.96.98v6.97l.672.336 1.288.644 2.066 1.035 2.067 1.03 2.08 1.035 2.133 1.07 2.462 1.227V0z" fill="#ad2115"/>
  <path d="m15.623 11.707-2.463 1.227-2.133 1.05-2.08 1.04-2.068 1.015-2.066 1.015-1.288.644-.672.336v6.97l1.96.98 2.063 1.015 2.067 1.015 2.078 1.04 2.134 1.05 2.463 1.415V11.707z" fill="#e93022"/>
  <path d="M24.138 8.08 15.623 11.604V4.49l8.515 3.59z" fill="#ad2115"/>
  <path d="M24.138 19.787 15.623 23.312V16.197l8.515 3.59z" fill="#e93022"/>
  <path d="M7.11 14.933 15.623 18.458V11.408L7.11 14.933z" fill="#ad2115"/>
  <path d="M15.623 11.408V18.458L24.138 14.933 15.623 11.408z" fill="#e93022"/>
  <path d="M11.306 13.66 7.11 14.933 15.623 18.458V15.59L11.306 13.66z" fill="#7a0c00"/>
  <path d="M15.623 15.59V18.458L24.138 14.933 19.94 13.66 15.623 15.59z" fill="#ad2115"/>
  <path d="m20.667 7.298-1.176.486-1.552-.73 1.552-.608 1.176.852zm-1.176.486-1.176.486-1.552-.73 1.552-.608 1.176.852zm-2.352.973-1.176.486-1.552-.73 1.552-.608 1.176.852zm-2.352.973-1.176.486-1.552-.73 1.552-.608 1.176.852zm-2.352.973-1.176.486-1.552-.73 1.552-.608 1.176.852zm-2.352.973-1.176.486-1.552-.73 1.552-.608 1.176.852zm-2.352.973-1.176.486-1.552-.73 1.552-.608 1.176.852z" fill="#fff"/>
  <path d="m20.667 19.005-1.176.486-1.552-.73 1.552-.608 1.176.852zm-1.176.486-1.176.486-1.552-.73 1.552-.608 1.176.852zm-2.352.973-1.176.486-1.552-.73 1.552-.608 1.176.852zm-2.352.973-1.176.486-1.552-.73 1.552-.608 1.176.852zm-2.352.973-1.176.486-1.552-.73 1.552-.608 1.176.852zm-2.352.973-1.176.486-1.552-.73 1.552-.608 1.176.852zm-2.352.973-1.176.486-1.552-.73 1.552-.608 1.176.852z" fill="#fff"/>
  <path d="m20.667 13.152-1.176.486-1.552-.73 1.552-.608 1.176.852zm-1.176.486-1.176.486-1.552-.73 1.552-.608 1.176.852zm-2.352.973-1.176.486-1.552-.73 1.552-.608 1.176.852zm-2.352.973-1.176.486-1.552-.73 1.552-.608 1.176.852zm-2.352.973-1.176.486-1.552-.73 1.552-.608 1.176.852zm-2.352.973-1.176.486-1.552-.73 1.552-.608 1.176.852zm-2.352.973-1.176.486-1.552-.73 1.552-.608 1.176.852z" fill="#fff"/>
  <path d="m20.667 7.298-1.176.486-1.552-.73 1.552-.608 1.176.852zm-1.176.486-1.176.486-1.552-.73 1.552-.608 1.176.852zm-2.352.973-1.176.486-1.552-.73 1.552-.608 1.176.852zm-2.352.973-1.176.486-1.552-.73 1.552-.608 1.176.852zm-2.352.973-1.176.486-1.552-.73 1.552-.608 1.176.852zm-2.352.973-1.176.486-1.552-.73 1.552-.608 1.176.852zm-2.352.973-1.176.486-1.552-.73 1.552-.608 1.176.852z" fill="#fff"/>
  <path d="m20.667 19.005-1.176.486-1.552-.73 1.552-.608 1.176.852zm-1.176.486-1.176.486-1.552-.73 1.552-.608 1.176.852zm-2.352.973-1.176.486-1.552-.73 1.552-.608 1.176.852zm-2.352.973-1.176.486-1.552-.73 1.552-.608 1.176.852zm-2.352.973-1.176.486-1.552-.73 1.552-.608 1.176.852zm-2.352.973-1.176.486-1.552-.73 1.552-.608 1.176.852zm-2.352.973-1.176.486-1.552-.73 1.552-.608 1.176.852z" fill="#fff"/>
  <path d="m20.667 13.152-1.176.486-1.552-.73 1.552-.608 1.176.852zm-1.176.486-1.176.486-1.552-.73 1.552-.608 1.176.852zm-2.352.973-1.176.486-1.552-.73 1.552-.608 1.176.852zm-2.352.973-1.176.486-1.552-.73 1.552-.608 1.176.852zm-2.352.973-1.176.486-1.552-.73 1.552-.608 1.176.852zm-2.352.973-1.176.486-1.552-.73 1.552-.608 1.176.852zm-2.352.973-1.176.486-1.552-.73 1.552-.608 1.176.852z" fill="#fff"/>
</svg>
