<?xml version="1.0" encoding="UTF-8"?>
<svg xmlns="http://www.w3.org/2000/svg" viewBox="0 0 254.5 225">
  <path fill="#2DBCAF" d="M154.689 33.72c-1.651-1.043-4.629-1.043-6.279 0L121.85 50.909a12.43 12.43 0 00-6.28 10.881v34.379c0 4.495 2.4 8.658 6.28 10.881l26.56 17.189c1.65 1.043 4.629 1.043 6.28 0l26.56-17.189a12.43 12.43 0 006.279-10.881V61.79c0-4.495-2.4-8.658-6.279-10.881l-26.561-17.189z"/>
  <g fill="#00ACD7">
    <path d="M78.06 143.984c-.786-1.826-1.183-3.786-1.183-5.872 0-1.825.259-3.651.914-5.417H40.554c-1.9 0-3.5-1.599-3.5-3.5v-101.5c0-1.9 1.6-3.5 3.5-3.5h171.293c1.9 0 3.5 1.6 3.5 3.5v101.5c0 1.901-1.6 3.5-3.5 3.5h-31.85c.634 1.739.876 3.538.876 5.352 0 2.098-.39 4.07-1.188 5.937h39.649c9.231 0 16.5-7.269 16.5-16.5v-101.5c0-9.231-7.269-16.5-16.5-16.5H33.67c-9.232 0-16.5 7.269-16.5 16.5v101.5c0 9.231 7.268 16.5 16.5 16.5h44.39z"/>
    <path d="M37.236 66.061c0-3.198 2.592-5.791 5.791-5.791 3.198 0 5.79 2.593 5.79 5.791 0 3.199-2.592 5.791-5.79 5.791-3.199 0-5.791-2.592-5.791-5.791M116.406 140.35c-5.488 2.267-11.549 2.312-17.045.11-5.497-2.201-9.879-6.444-12.141-11.931-.161-.387-.31-.779-.451-1.174-.365-1.029-.67-2.086-.92-3.163l-.059-.285c-.621-2.893-.651-5.906-.088-8.811.016-.08.034-.159.05-.239.023-.108.043-.215.068-.323.064-.287.137-.573.214-.856.169-.63.358-1.254.568-1.87.641-1.674 1.471-3.284 2.511-4.774.188-.27.384-.538.585-.802.169-.22.341-.438.516-.653.206-.255.419-.505.636-.751.142-.161.282-.322.428-.48.151-.166.307-.328.464-.489.366-.379.741-.747 1.133-1.101.155-.14.313-.277.472-.413.493-.422 1.003-.825 1.537-1.202.192-.136.388-.267.585-.398.217-.146.437-.287.66-.425.304-.188.614-.369.927-.542.229-.128.458-.255.691-.375.325-.17.656-.33.99-.487.269-.126.538-.251.811-.369.365-.157.736-.305 1.109-.447.29-.111.58-.221.874-.323.403-.142.811-.272 1.221-.394.295-.089.591-.176.89-.256.439-.116.882-.219 1.328-.312.3-.062.599-.124.9-.177.478-.084.96-.152 1.444-.211.298-.036.595-.073.894-.101.516-.048 1.035-.082 1.556-.105.293-.013.586-.028.879-.033.906-.02 1.815.001 2.723.064.272.019.544.041.816.066.544.05 1.088.116 1.629.197.265.04.529.08.792.125.546.093 1.09.202 1.631.327.255.059.51.119.764.184.549.142 1.094.301 1.634.477.233.076.465.154.696.236.549.195 1.094.41 1.633.641.206.088.41.177.614.27.547.249 1.09.518 1.625.804.179.095.358.192.535.291.544.307 1.082.631 1.609.975.15.098.3.197.448.298.54.366 1.07.75 1.586 1.155.12.094.24.189.358.285.534.428 1.057.876 1.561 1.344.09.084.179.168.267.253.525.492 1.037 1.003 1.53 1.535.069.075.138.15.206.226.514.567 1.01 1.154 1.484 1.762.047.06.093.12.139.181.501.647.981 1.315 1.438 2.003.02.03.04.059.059.089.48.728.935 1.478 1.36 2.247.011.02.022.039.033.059.435.789.84 1.598 1.213 2.426.012.027.024.054.036.081.38.845.726 1.708 1.039 2.587.007.02.014.04.021.06.319.893.603 1.8.85 2.722.005.019.01.038.016.057.251.933.464 1.88.639 2.838.004.022.008.044.012.066.177.967.315 1.946.414 2.933.001.012.003.024.004.036.1 1.001.159 2.01.18 3.025v.001c.022 1.038-.004 2.082-.078 3.128-.006.083-.014.166-.021.249-.034.413-.073.825-.122 1.237-.01.083-.022.166-.033.249-.055.429-.117.857-.188 1.284-.014.084-.029.168-.044.252-.078.442-.165.883-.262 1.322-.018.082-.036.164-.055.246-.104.453-.217.904-.342 1.353-.023.083-.048.166-.072.249-.131.456-.272.91-.425 1.36-.029.086-.06.172-.09.258-.16.454-.33.905-.512 1.352-.036.089-.074.177-.111.266-.19.45-.391.897-.604 1.339-.043.09-.087.179-.131.268-.221.444-.452.883-.695 1.316-.05.09-.102.179-.153.268-.252.436-.514.866-.788 1.29-.058.09-.117.179-.176.268-.284.426-.578.845-.884 1.255-.066.09-.133.179-.2.268-.316.414-.642.82-.979 1.217-.075.09-.151.179-.227.267-.348.4-.706.79-1.075 1.169-.084.09-.169.179-.255.267-.38.384-.77.758-1.171 1.121-.093.088-.187.175-.281.262-.413.367-.835.723-1.268 1.066-.102.081-.205.161-.308.241-.447.347-.903.682-1.37 1.002-.111.076-.223.151-.335.226-.481.324-.971.635-1.471.931-.12.071-.241.141-.362.21-.515.298-1.039.582-1.572.849-.129.065-.258.129-.388.192-.549.264-1.107.513-1.673.744-.137.056-.274.111-.412.165-.583.228-1.174.44-1.772.634-.145.047-.29.093-.436.138-.616.19-1.239.362-1.87.516-.153.037-.307.073-.461.108-.649.149-1.304.279-1.966.389-.16.027-.32.053-.48.077-.682.106-1.369.191-2.061.256-.167.016-.334.031-.501.044-.714.06-1.432.099-2.155.117-.18.004-.359.008-.539.01-.741.008-1.484-.005-2.23-.04zM40.5 101.791c-1.9 0-3.5-1.6-3.5-3.5v-11c0-1.9 1.6-3.5 3.5-3.5h45.787c1.9 0 3.5 1.6 3.5 3.5v11c0 1.9-1.6 3.5-3.5 3.5H40.5z"/>
  </g>
  <g fill="#00ACD7">
    <path d="M201.892 79.446c-5.845-2.094-11.152-1.87-16.934.66-5.782 2.53-10.257 7.315-12.351 13.16-.149.414-.285.834-.412 1.257-.33 1.09-.599 2.201-.803 3.327l-.048.302c-.518 3.062-.48 6.217.11 9.271.017.084.035.168.053.252.024.114.045.227.071.34.068.303.145.604.227.903.179.665.379 1.323.601 1.973.677 1.767 1.554 3.467 2.65 5.04.198.285.405.568.618.847.178.232.36.462.546.689.217.269.442.533.672.792.15.17.298.34.452.507.16.175.324.346.49.516.387.4.783.789 1.196 1.162.164.148.331.293.499.437.521.445 1.06.871 1.623 1.269.203.143.41.282.618.42.229.154.462.303.697.449.321.198.649.39.98.572.242.135.484.269.73.396.343.179.693.349 1.046.514.284.133.568.265.856.39.386.166.778.322 1.172.472.306.117.613.233.923.341.426.15.857.287 1.29.416.312.094.624.186.94.27.464.123.932.232 1.403.33.317.066.633.131.951.187.505.089 1.014.161 1.526.223.315.038.629.077.945.107.545.051 1.093.086 1.644.111.31.014.619.03.929.035.957.021 1.917-.001 2.876-.068.287-.02.574-.043.861-.069.575-.053 1.149-.123 1.721-.208.28-.042.559-.085.837-.132.577-.098 1.151-.213 1.723-.345.27-.062.539-.126.807-.194.58-.15 1.156-.318 1.726-.504.246-.08.491-.163.735-.249.58-.206 1.155-.433 1.725-.677.218-.093.434-.187.649-.285.578-.263 1.151-.547 1.716-.849.189-.101.378-.203.565-.307.574-.324 1.143-.667 1.699-1.03.158-.103.316-.208.473-.314.57-.387 1.13-.792 1.675-1.22.127-.1.254-.2.379-.301.564-.452 1.116-.925 1.649-1.419.095-.088.189-.177.282-.267.554-.52 1.095-1.059 1.616-1.621.073-.079.146-.158.218-.238.542-.599 1.066-1.219 1.567-1.861.05-.064.099-.127.147-.191.529-.683 1.036-1.389 1.518-2.115.021-.032.042-.063.063-.095.507-.769.987-1.561 1.436-2.373.012-.021.023-.042.035-.063.459-.833.887-1.687 1.281-2.562.013-.029.026-.057.038-.086.401-.892.767-1.803 1.097-2.732.008-.021.015-.042.022-.063.337-.942.637-1.9.898-2.874.006-.02.011-.04.017-.06.265-.985.49-1.985.675-2.997.004-.023.008-.046.013-.069.187-1.021.333-2.055.437-3.097.001-.013.003-.025.004-.038.105-1.057.168-2.122.19-3.194v-.001c.023-1.096-.004-2.199-.082-3.303-.007-.088-.015-.175-.022-.263-.036-.436-.077-.871-.129-1.306-.01-.088-.023-.175-.035-.263-.058-.453-.124-.905-.199-1.356-.015-.089-.031-.177-.047-.266-.082-.467-.174-.932-.277-1.396-.019-.087-.038-.173-.058-.26-.11-.478-.229-.954-.361-1.428-.024-.088-.051-.175-.076-.263-.138-.481-.287-.96-.448-1.436-.031-.091-.063-.182-.095-.272-.169-.479-.349-.955-.54-1.427-.038-.094-.078-.187-.117-.281-.201-.475-.413-.947-.638-1.414-.045-.095-.092-.189-.138-.283-.233-.469-.477-.932-.734-1.39-.053-.095-.108-.189-.162-.283-.266-.46-.543-.914-.832-1.362-.061-.095-.124-.189-.186-.283-.3-.45-.61-.892-.933-1.325-.07-.095-.14-.189-.211-.283-.334-.437-.678-.865-1.034-1.285-.079-.095-.159-.189-.24-.282-.367-.422-.745-.834-1.135-1.234-.089-.095-.179-.189-.269-.282-.401-.405-.813-.8-1.237-1.183-.098-.093-.197-.185-.297-.277-.436-.387-.882-.763-1.339-1.125-.108-.086-.217-.17-.326-.254-.472-.366-.953-.72-1.447-1.058-.117-.08-.235-.16-.354-.239-.508-.342-1.025-.67-1.554-.983-.127-.075-.254-.149-.382-.222-.544-.314-1.097-.614-1.66-.896-.136-.068-.273-.136-.41-.203-.58-.279-1.169-.542-1.767-.786-.145-.059-.29-.117-.435-.174-.616-.24-1.24-.464-1.871-.67-.153-.05-.307-.098-.461-.146-.651-.2-1.309-.382-1.975-.545-.162-.039-.324-.077-.487-.114-.686-.157-1.378-.295-2.076-.41-.169-.028-.338-.056-.507-.082-.72-.112-1.446-.202-2.178-.27-.176-.017-.353-.033-.53-.047-.754-.063-1.513-.104-2.277-.123-.19-.005-.379-.009-.569-.011-.783-.009-1.568.005-2.356.042-5.845 2.094-11.152 1.87-16.934-.66-5.782-2.53-10.257-7.315-12.351-13.16-.149-.414-.285-.834-.412-1.257-.33-1.09-.599-2.201-.803-3.327l-.048-.302c-.518-3.062-.48-6.217.11-9.271.017-.084.035-.168.053-.252.024-.114.045-.227.071-.34.068-.303.145-.604.227-.903.179-.665.379-1.323.601-1.973.677-1.767 1.554-3.467 2.65-5.04.198-.285.405-.568.618-.847.178-.232.36-.462.546-.689.217-.269.442-.533.672-.792.15-.17.298-.34.452-.507.16-.175.324-.346.49-.516.387-.4.783-.789 1.196-1.162.164-.148.331-.293.499-.437.521-.445 1.06-.871 1.623-1.269.203-.143.41-.282.618-.42.229-.154.462-.303.697-.449.321-.198.649-.39.98-.572.242-.135.484-.269.73-.396.343-.179.693-.349 1.046-.514.284-.133.568-.265.856-.39.386-.166.778-.322 1.172-.472.306-.117.613-.233.923-.341.426-.15.857-.287 1.29-.416.312-.094.624-.186.94-.27.464-.123.932-.232 1.403-.33.317-.066.633-.131.951-.187.505-.089 1.014-.161 1.526-.223.315-.038.629-.077.945-.107.545-.051 1.093-.086 1.644-.111.31-.014.619-.03.929-.035.957-.021 1.917.001 2.876.068.287.02.574.043.861.069.575.053 1.149.123 1.721.208.28.042.559.085.837.132.577.098 1.151.213 1.723.345.27.062.539.126.807.194.58.15 1.156.318 1.726.504.246.08.491.163.735.249.58.206 1.155.433 1.725.677.218.093.434.187.649.285.578.263 1.151.547 1.716.849.189.101.378.203.565.307.574.324 1.143.667 1.699 1.03.158.103.316.208.473.314.57.387 1.13.792 1.675 1.22.127.1.254.2.379.301.564.452 1.116.925 1.649 1.419.095.088.189.177.282.267.554.52 1.095 1.059 1.616 1.621.073.079.146.158.218.238.542.599 1.066 1.219 1.567 1.861.05.064.099.127.147.191.529.683 1.036 1.389 1.518 2.115.021.032.042.063.063.095.507.769.987 1.561 1.436 2.373.012.021.023.042.035.063.459.833.887 1.687 1.281 2.562.013.029.026.057.038.086.401.892.767 1.803 1.097 2.732.008.021.015.042.022.063.337.942.637 1.9.898 2.874.006.02.011.04.017.06.265.985.49 1.985.675 2.997.004.023.008.046.013.069.187 1.021.333 2.055.437 3.097.001.013.003.025.004.038.105 1.057.168 2.122.19 3.194v.001c.023 1.096-.004 2.199-.082 3.303-.007.088-.015.175-.022.263-.036.436-.077.871-.129 1.306-.01.088-.023.175-.035.263-.058.453-.124.905-.199 1.356-.015.089-.031.177-.047.266-.082.467-.174.932-.277 1.396-.019.087-.038.173-.058.26-.11.478-.229.954-.361 1.428-.024.088-.051.175-.076.263-.138.481-.287.96-.448 1.436-.031.091-.063.182-.095.272-.169.479-.349.955-.54 1.427-.038.094-.078.187-.117.281-.201.475-.413.947-.638 1.414-.045.095-.092.189-.138.283-.233.469-.477.932-.734 1.39-.053.095-.108.189-.162.283-.266.46-.543.914-.832 1.362-.061.095-.124.189-.186.283-.3.45-.61.892-.933 1.325-.07.095-.14.189-.211.283-.334.437-.678.865-1.034 1.285-.079.095-.159.189-.24.282-.367.422-.745.834-1.135 1.234-.089.095-.179.189-.269.282-.401.405-.813.8-1.237 1.183-.098.093-.197.185-.297.277-.436.387-.882.763-1.339 1.125-.108.086-.217.17-.326.254-.472.366-.953.72-1.447 1.058-.117.08-.235.16-.354.239-.508.342-1.025.67-1.554.983-.127.075-.254.149-.382.222-.544.314-1.097.614-1.66.896-.136.068-.273.136-.41.203-.58.279-1.169.542-1.767.786-.145.059-.29.117-.435.174-.616.24-1.24.464-1.871.67-.153.05-.307.098-.461.146-.651.2-1.309.382-1.975.545-.162.039-.324.077-.487.114-.686.157-1.378.295-2.076.41-.169.028-.338.056-.507.082-.72.112-1.446.202-2.178.27-.176.017-.353.033-.53.047-.754.063-1.513.104-2.277.123-.19.005-.379.009-.569.011-.783.009-1.568-.005-2.356-.042z"/>
  </g>
</svg>
