<?xml version="1.0" encoding="UTF-8"?>
<svg xmlns="http://www.w3.org/2000/svg" viewBox="0 0 128 128">
  <path fill="#6181B6" d="M64 33.039C30.26 33.039 2.906 46.901 2.906 64S30.26 94.961 64 94.961 125.094 81.099 125.094 64 97.74 33.039 64 33.039zM48.103 70.032c-1.458 1.364-3.077 1.927-4.86 2.507-1.783.581-4.052.461-6.811.461h-6.253l-1.733 10h-7.301l6.515-34h14.04c4.224 0 7.305 1.215 9.242 3.432 1.937 2.217 2.519 5.364 1.747 9.337-.319 1.637-.856 3.159-1.614 4.515a15.118 15.118 0 01-2.972 3.748zm31.252 12.968h-7.045l.845-4.262h-8.315l-1.733 10h-7.058l6.515-34h14.039c4.224 0 7.305 1.215 9.242 3.432 1.937 2.217 2.513 5.364 1.747 9.337-.319 1.637-.856 3.159-1.614 4.515a15.118 15.118 0 01-2.972 3.748c-1.458 1.364-3.077 1.927-4.86 2.507-1.783.581-4.052.461-6.811.461h-6.253l-1.733 10h-.013l.013-.738zm31.251 0h-7.045l.845-4.262h-8.315l-1.733 10h-7.058l6.515-34h14.039c4.224 0 7.305 1.215 9.242 3.432 1.937 2.217 2.513 5.364 1.747 9.337-.319 1.637-.856 3.159-1.614 4.515a15.118 15.118 0 01-2.972 3.748c-1.458 1.364-3.077 1.927-4.86 2.507-1.783.581-4.052.461-6.811.461h-6.253l-1.733 10h-.013l.013-.738z"/>
  <path fill="#fff" d="M41.916 42.45h-7.049l-3.698 19.231h5.469c2.274 0 4.206-.15 5.798-.901 1.592-.752 2.796-1.902 3.6-3.45.77-1.492 1.244-3.194 1.422-5.104.275-2.755-.076-4.872-1.059-6.352-.984-1.48-2.654-2.188-5.012-2.188l-.471-.236zm20.217 0h-7.049l-4.027 21.458h7.049l4.027-21.458zm19.559 0h-7.049l-3.698 19.231h5.469c2.274 0 4.206-.15 5.798-.901 1.592-.752 2.796-1.902 3.6-3.45.77-1.492 1.244-3.194 1.422-5.104.275-2.755-.076-4.872-1.059-6.352-.984-1.48-2.654-2.188-5.012-2.188l-.471-.236z"/>
  <path fill="#6181B6" d="M46.94 50.162c-.319 1.637-.856 3.159-1.614 4.515a15.118 15.118 0 01-2.972 3.748c-1.458 1.364-3.077 1.927-4.86 2.507-1.783.581-4.052.461-6.811.461h-6.253l-1.733 10h-7.301l6.515-34h14.04c4.224 0 7.305 1.215 9.242 3.432 1.937 2.217 2.519 5.364 1.747 9.337z"/>
  <path fill="#fff" d="M35.662 54.045c.518-2.691.273-4.825-.731-6.401s-2.601-2.364-4.732-2.364h-6.57l-2.657 13.628h6.326c2.93 0 5.307-.379 7.104-1.137 1.795-.758 2.825-2.069 3.26-3.726z"/>
  <path fill="#6181B6" d="M78.196 50.162c-.319 1.637-.856 3.159-1.614 4.515a15.118 15.118 0 01-2.972 3.748c-1.458 1.364-3.077 1.927-4.86 2.507-1.783.581-4.052.461-6.811.461h-6.253l-1.733 10h-7.301l6.515-34h14.04c4.224 0 7.305 1.215 9.242 3.432 1.937 2.217 2.519 5.364 1.747 9.337z"/>
  <path fill="#fff" d="M66.918 54.045c.518-2.691.273-4.825-.731-6.401s-2.601-2.364-4.732-2.364h-6.57l-2.657 13.628h6.326c2.93 0 5.307-.379 7.104-1.137 1.795-.758 2.825-2.069 3.26-3.726z"/>
  <path fill="#6181B6" d="M109.447 50.162c-.319 1.637-.856 3.159-1.614 4.515a15.118 15.118 0 01-2.972 3.748c-1.458 1.364-3.077 1.927-4.86 2.507-1.783.581-4.052.461-6.811.461h-6.253l-1.733 10h-7.301l6.515-34h14.04c4.224 0 7.305 1.215 9.242 3.432 1.937 2.217 2.519 5.364 1.747 9.337z"/>
  <path fill="#fff" d="M98.169 54.045c.518-2.691.273-4.825-.731-6.401s-2.601-2.364-4.732-2.364h-6.57l-2.657 13.628h6.326c2.93 0 5.307-.379 7.104-1.137 1.795-.758 2.825-2.069 3.26-3.726z"/>
</svg>
